<svg width="178" height="178" viewBox="0 0 178 178" fill="none" xmlns="http://www.w3.org/2000/svg">
<path d="M173.5 89C173.5 135.668 135.668 173.5 89 173.5C42.3319 173.5 4.5 135.668 4.5 89C4.5 42.3319 42.3319 4.5 89 4.5C135.668 4.5 173.5 42.3319 173.5 89Z" fill="#333333" stroke="white" stroke-width="9"/>
<path fill-rule="evenodd" clip-rule="evenodd" d="M32.4911 125.812C45.1422 120.106 65.8692 115.414 99.9111 124.331C120.742 129.788 136.302 129.08 147.748 125.812C147.748 126.42 131.385 160.831 90.42 160.831C49.4546 160.831 32.4911 125.684 32.4911 125.812Z" fill="#31AAB7"/>
<g filter="url(#filter0_d_499_869)">
<path d="M109.32 112H64.52V67.2L73.48 58.24H64.52V49.28H109.32V58.24H74.76V83.84L82.44 76.16H109.32V85.12H74.76V103.04H109.32V112Z" fill="white"/>
</g>
<defs>
<filter id="filter0_d_499_869" x="60.52" y="49.28" width="52.8" height="70.72" filterUnits="userSpaceOnUse" color-interpolation-filters="sRGB">
<feFlood flood-opacity="0" result="BackgroundImageFix"/>
<feColorMatrix in="SourceAlpha" type="matrix" values="0 0 0 0 0 0 0 0 0 0 0 0 0 0 0 0 0 0 127 0" result="hardAlpha"/>
<feOffset dy="4"/>
<feGaussianBlur stdDeviation="2"/>
<feComposite in2="hardAlpha" operator="out"/>
<feColorMatrix type="matrix" values="0 0 0 0 0 0 0 0 0 0 0 0 0 0 0 0 0 0 0.25 0"/>
<feBlend mode="normal" in2="BackgroundImageFix" result="effect1_dropShadow_499_869"/>
<feBlend mode="normal" in="SourceGraphic" in2="effect1_dropShadow_499_869" result="shape"/>
</filter>
</defs>
</svg>
